<?xml version="1.0" standalone="no"?>
<!DOCTYPE svg PUBLIC "-//W3C//DTD SVG 20010904//EN"
 "http://www.w3.org/TR/2001/REC-SVG-20010904/DTD/svg10.dtd">
<svg version="1.0" xmlns="http://www.w3.org/2000/svg"
 width="700.000000pt" height="700.000000pt" viewBox="0 0 700.000000 700.000000"
 preserveAspectRatio="xMidYMid meet">
<metadata>
Created by potrace 1.11, written by Peter Selinger 2001-2013
</metadata>
<g transform="translate(0.000000,700.000000) scale(0.100000,-0.100000)"
fill="#000000" stroke="none">
<path d="M1580 6164 c-104 -22 -186 -68 -268 -150 -171 -171 -209 -410 -99
-633 64 -131 219 -250 365 -280 180 -37 370 17 497 144 76 74 119 150 145 251
51 199 -4 390 -153 530 -79 75 -158 117 -263 139 -84 18 -139 18 -224 -1z"/>
<path d="M3383 6165 c-188 -41 -345 -186 -404 -375 -30 -96 -28 -235 4 -329
78 -223 284 -371 517 -371 182 0 363 99 460 250 80 125 105 309 61 450 -86
274 -360 435 -638 375z"/>
<path d="M5183 6165 c-34 -8 -94 -30 -132 -50 -324 -170 -391 -607 -132 -864
109 -109 234 -161 386 -161 151 0 277 52 385 160 102 102 160 240 160 380 -1
351 -323 610 -667 535z"/>
<path d="M1620 4750 c-268 -37 -470 -271 -470 -545 0 -72 34 -197 71 -261 67
-119 174 -205 308 -251 88 -30 231 -32 322 -3 120 37 224 113 295 216 76 110
110 275 85 406 -27 137 -126 284 -241 358 -100 64 -249 96 -370 80z"/>
<path d="M3420 4750 c-271 -42 -462 -264 -462 -540 0 -191 84 -346 247 -456
159 -109 425 -111 584 -5 163 109 251 269 253 457 1 155 -51 283 -157 389
-120 120 -300 180 -465 155z"/>
<path d="M1530 3307 c-36 -12 -87 -35 -114 -51 -240 -141 -332 -449 -210 -703
62 -130 170 -225 314 -278 63 -23 91 -27 175 -27 84 0 112 4 175 27 240 88
386 307 367 554 -18 227 -167 414 -386 481 -90 28 -234 27 -321 -3z"/>
<path d="M3365 3319 c-76 -18 -182 -79 -244 -141 -110 -108 -163 -236 -163
-388 0 -152 53 -281 158 -385 106 -105 235 -158 384 -158 247 0 456 159 525
397 23 77 23 214 0 292 -52 183 -217 343 -395 383 -55 13 -210 12 -265 0z"/>
<path d="M3400 1959 c-88 -14 -213 -81 -284 -153 -108 -108 -159 -234 -158
-392 1 -225 130 -410 347 -500 64 -27 80 -29 195 -29 115 0 131 2 195 29 217
90 346 275 347 500 1 219 -110 400 -303 495 -116 56 -211 70 -339 50z"/>
</g>
</svg>
